# Blender 3.4.0
# www.blender.org
mtllib 5x5_plane_random_height.mtl
o Plane
v -1.000000 -0.077502 1.000000
v 1.000000 0.090973 1.000000
v -1.000000 0.111905 -1.000000
v 1.000000 0.070516 -1.000000
v -1.000000 -0.134664 -0.600000
v -1.000000 0.064212 -0.200000
v -1.000000 -0.131050 0.200000
v -1.000000 -0.010121 0.600000
v 1.000000 -0.075767 0.600000
v 1.000000 0.052232 0.200000
v 1.000000 0.109891 -0.200000
v 1.000000 0.084979 -0.600000
v -0.600000 0.139884 1.000000
v -0.200000 -0.004854 1.000000
v 0.200000 -0.066994 1.000000
v 0.600000 0.108764 1.000000
v 0.600000 0.073349 -1.000000
v 0.200000 -0.129112 -1.000000
v -0.200000 0.059154 -1.000000
v -0.600000 0.122442 -1.000000
v 0.600000 0.045175 0.600000
v 0.200000 -0.132555 0.600000
v -0.200000 0.141066 0.600000
v -0.600000 0.000831 0.600000
v 0.600000 0.141846 0.200000
v 0.200000 0.062184 0.200000
v -0.200000 0.035409 0.200000
v -0.600000 -0.137135 0.200000
v 0.600000 -0.037639 -0.200000
v 0.200000 -0.137789 -0.200000
v -0.200000 0.154062 -0.200000
v -0.600000 0.091377 -0.200000
v 0.600000 -0.066588 -0.600000
v 0.200000 0.147212 -0.600000
v -0.200000 0.058408 -0.600000
v -0.600000 -0.130596 -0.600000
vn -0.1807 0.9717 0.1524
vn 0.1644 0.9479 -0.2729
vn 0.2456 0.9333 0.2621
vn -0.0714 0.9861 -0.1502
vn -0.3495 0.9348 -0.0629
vn -0.0345 0.8845 -0.4653
vn -0.2807 0.8921 -0.3542
vn 0.2398 0.9447 0.2236
vn 0.1341 0.9438 0.3021
vn -0.0233 0.8834 0.4680
vn -0.2604 0.8857 0.3844
vn 0.3131 0.9449 -0.0960
vn -0.1990 0.8854 -0.4200
vn -0.0058 0.9514 -0.3079
vn -0.3503 0.8960 -0.2729
vn 0.2932 0.9502 0.1058
vn -0.2894 0.8994 0.3276
vn -0.2734 0.9580 -0.0858
vn 0.0056 0.9999 0.0086
vn 0.3853 0.9182 0.0922
vn -0.3998 0.9049 -0.1461
vn -0.0155 0.8481 0.5296
vn -0.1481 0.9427 0.2990
vn 0.1167 0.9390 -0.3235
vn 0.0140 0.9857 -0.1680
vt 0.000000 0.000000
vt 1.000000 0.000000
vt 0.000000 1.000000
vt 1.000000 1.000000
vt 0.000000 0.800000
vt 0.000000 0.600000
vt 0.000000 0.400000
vt 0.000000 0.200000
vt 1.000000 0.200000
vt 1.000000 0.400000
vt 1.000000 0.600000
vt 1.000000 0.800000
vt 0.200000 0.000000
vt 0.400000 0.000000
vt 0.600000 0.000000
vt 0.800000 0.000000
vt 0.800000 1.000000
vt 0.600000 1.000000
vt 0.400000 1.000000
vt 0.200000 1.000000
vt 0.800000 0.200000
vt 0.600000 0.200000
vt 0.400000 0.200000
vt 0.200000 0.200000
vt 0.800000 0.400000
vt 0.600000 0.400000
vt 0.400000 0.400000
vt 0.200000 0.400000
vt 0.800000 0.600000
vt 0.600000 0.600000
vt 0.400000 0.600000
vt 0.200000 0.600000
vt 0.800000 0.800000
vt 0.600000 0.800000
vt 0.400000 0.800000
vt 0.200000 0.800000
s 0
f 33/33/1 12/12/1 4/4/1 17/17/1
f 16/16/2 2/2/2 9/9/2 21/21/2
f 21/21/3 9/9/3 10/10/3 25/25/3
f 25/25/4 10/10/4 11/11/4 29/29/4
f 29/29/5 11/11/5 12/12/5 33/33/5
f 6/6/6 32/32/6 36/36/6 5/5/6
f 32/32/7 31/31/7 35/35/7 36/36/7
f 31/31/8 30/30/8 34/34/8 35/35/8
f 30/30/9 29/29/9 33/33/9 34/34/9
f 7/7/10 28/28/10 32/32/10 6/6/10
f 28/28/11 27/27/11 31/31/11 32/32/11
f 27/27/12 26/26/12 30/30/12 31/31/12
f 26/26/13 25/25/13 29/29/13 30/30/13
f 8/8/14 24/24/14 28/28/14 7/7/14
f 24/24/15 23/23/15 27/27/15 28/28/15
f 23/23/16 22/22/16 26/26/16 27/27/16
f 22/22/17 21/21/17 25/25/17 26/26/17
f 1/1/18 13/13/18 24/24/18 8/8/18
f 13/13/19 14/14/19 23/23/19 24/24/19
f 14/14/20 15/15/20 22/22/20 23/23/20
f 15/15/21 16/16/21 21/21/21 22/22/21
f 5/5/22 36/36/22 20/20/22 3/3/22
f 36/36/23 35/35/23 19/19/23 20/20/23
f 35/35/24 34/34/24 18/18/24 19/19/24
f 34/34/25 33/33/25 17/17/25 18/18/25
